<?xml version="1.0" standalone="no"?>
<!DOCTYPE svg PUBLIC "-//W3C//DTD SVG 20010904//EN"
 "http://www.w3.org/TR/2001/REC-SVG-20010904/DTD/svg10.dtd">
<svg version="1.0" xmlns="http://www.w3.org/2000/svg"
 width="64.000000pt" height="64.000000pt" viewBox="0 0 64.000000 64.000000"
 preserveAspectRatio="xMidYMid meet">
<metadata>
Created by potrace 1.16, written by Peter Selinger 2001-2019
</metadata>
<g transform="translate(0.000000,64.000000) scale(0.100000,-0.100000)"
fill="#000000" stroke="none">
<path d="M223 430 c-37 -29 -56 -54 -73 -95 -25 -63 -22 -85 15 -85 21 0 30 8
46 45 16 36 39 67 39 53 0 -35 -43 -186 -58 -202 -42 -46 -54 -73 -42 -95 19
-37 54 -26 99 32 22 30 41 61 41 70 0 21 15 30 27 14 6 -6 16 -34 22 -62 7
-27 17 -55 23 -62 14 -18 43 -16 58 2 18 22 -6 125 -41 178 -29 43 -34 62 -23
91 5 13 10 14 20 5 7 -6 33 -17 58 -24 35 -11 48 -11 61 -1 28 20 14 50 -31
65 -26 9 -50 27 -65 49 -37 55 -48 62 -88 62 -30 0 -50 -9 -88 -40z m127 5
c11 -13 9 -30 -8 -92 l-21 -77 33 -45 c38 -53 65 -146 47 -164 -16 -16 -30 2
-46 63 -11 41 -24 63 -60 96 -33 30 -45 48 -42 61 19 63 28 106 23 110 -12 12
-58 -31 -78 -72 -23 -47 -55 -64 -42 -22 34 109 150 195 194 142z"/>
</g>
</svg>
