<?xml version="1.0" standalone="no"?>
<!DOCTYPE svg PUBLIC "-//W3C//DTD SVG 20010904//EN"
 "http://www.w3.org/TR/2001/REC-SVG-20010904/DTD/svg10.dtd">
<svg version="1.0" xmlns="http://www.w3.org/2000/svg"
 width="1084.000000pt" height="1080.000000pt" viewBox="0 0 1084.000000 1080.000000"
 preserveAspectRatio="xMidYMid meet">
<metadata>
Created by potrace 1.16, written by Peter Selinger 2001-2019
</metadata>
<g transform="translate(0.000000,1080.000000) scale(0.100000,-0.100000)"
fill="#000000" stroke="none">
<path d="M5230 8017 c-3 -2 -47 -7 -99 -11 -52 -4 -97 -8 -100 -10 -3 -2 -28
-7 -56 -10 -27 -4 -99 -18 -160 -32 -60 -14 -119 -28 -129 -30 -49 -10 -218
-71 -346 -126 -14 -6 -28 -11 -32 -10 -5 1 -8 -2 -8 -7 0 -5 -10 -13 -22 -16
-13 -4 -49 -19 -81 -33 -67 -29 -65 -6 -18 -214 72 -318 124 -720 114 -879
l-6 -97 -166 -5 c-187 -5 -250 -19 -301 -67 -30 -28 -32 -34 -27 -76 4 -37 13
-54 48 -90 76 -78 175 -123 372 -173 66 -16 121 -32 123 -34 6 -6 11 -35 19
-121 8 -80 10 -92 31 -201 17 -87 35 -153 55 -200 7 -16 11 -34 10 -38 -1 -5
2 -6 7 -4 11 8 4 127 -19 322 -13 116 -12 225 4 226 38 2 137 -3 167 -10 l35
-7 -40 -19 c-22 -10 -59 -38 -82 -62 -47 -48 -60 -82 -15 -41 43 40 117 71
202 83 19 3 76 12 125 20 50 7 144 16 210 20 204 11 256 14 390 26 188 16 205
17 255 20 25 1 51 6 58 12 10 8 12 7 10 -3 -2 -9 7 -15 27 -15 17 -1 41 -6 55
-12 14 -6 27 -9 30 -6 6 6 -22 23 -31 18 -3 -3 -14 4 -24 15 -21 23 -30 20
133 55 68 15 129 24 137 21 15 -5 30 -75 40 -176 31 -337 41 -390 68 -373 6 4
7 1 3 -6 -12 -19 -23 -447 -12 -458 3 -4 6 15 6 40 0 26 3 47 8 48 69 6 79 11
134 72 32 34 58 68 58 75 0 10 -3 10 -15 -2 -8 -8 -15 -18 -15 -23 -1 -27 -94
-103 -125 -103 -37 0 -52 63 -35 143 4 21 4 40 -1 43 -5 3 -6 11 -2 17 4 6 8
81 10 167 2 85 6 162 10 170 3 8 7 26 8 40 1 13 7 26 14 28 6 2 9 8 6 12 -8
13 57 72 85 78 8 2 18 9 22 15 6 9 8 9 8 0 0 -7 9 -13 19 -13 11 0 27 -7 35
-16 9 -8 16 -12 16 -7 0 5 -5 14 -11 20 -6 6 -12 23 -14 39 -2 16 -9 63 -15
104 -6 41 -14 95 -17 120 l-5 45 93 43 c200 94 309 195 309 288 0 35 -6 47
-35 72 -48 43 -98 48 -294 28 -91 -9 -171 -16 -178 -16 -6 0 -14 26 -18 63 -4
34 -11 69 -16 78 -9 17 -15 65 -23 174 -3 39 -9 108 -13 155 -4 47 -7 229 -6
406 l1 321 -52 10 c-28 6 -87 19 -131 31 -117 29 -173 41 -235 48 -30 3 -68 8
-85 10 -40 7 -449 16 -455 11z"/>
<path d="M5575 5965 c-90 -34 -138 -72 -169 -138 -25 -55 -15 -66 17 -18 29
43 120 103 143 94 8 -3 14 -20 14 -42 1 -37 9 -52 46 -83 19 -17 20 -16 20 17
0 18 -3 32 -7 29 -4 -2 -12 3 -18 10 -9 11 -9 16 1 22 22 14 38 13 38 -2 0
-30 72 -41 102 -16 8 6 17 10 20 7 2 -3 5 2 5 10 0 8 -2 13 -5 10 -9 -8 -63
26 -59 38 5 17 55 21 72 7 8 -7 13 -16 10 -20 -3 -5 3 -6 12 -4 21 5 69 -19
66 -33 -1 -5 4 -10 12 -10 33 0 -35 82 -85 104 -74 31 -176 39 -235 18z"/>
<path d="M4686 5893 c-42 -11 -96 -54 -121 -97 -34 -58 -23 -80 16 -33 29 35
83 67 114 67 11 0 16 -7 14 -22 -4 -37 11 -85 32 -104 10 -9 19 -23 19 -30 0
-14 77 -12 127 4 17 6 34 8 37 4 3 -3 6 2 6 12 0 9 4 14 10 11 5 -3 7 0 4 8
-2 7 0 26 6 41 l10 27 29 -20 c41 -29 44 -26 20 17 -33 59 -84 99 -140 111
-50 11 -147 13 -183 4z"/>
<path d="M5335 5208 c-38 -11 -86 -20 -105 -20 -259 5 -297 -5 -375 -91 -93
-102 -96 -106 -122 -104 -40 3 -38 -18 3 -38 44 -21 97 -16 153 13 37 20 101
24 141 9 33 -12 60 -15 60 -6 0 5 -14 9 -32 9 -44 0 -34 6 54 29 43 12 92 30
109 40 29 18 34 18 73 4 37 -14 213 -22 256 -12 9 3 14 -2 12 -11 -3 -12 0
-12 14 2 13 12 23 14 41 7 65 -24 146 -28 196 -9 68 28 85 66 24 55 -36 -7
-50 -1 -155 68 -40 27 -89 55 -107 63 -48 20 -157 16 -240 -8z"/>
<path d="M6112 4922 c-17 -38 -32 -72 -32 -75 0 -6 -6 -15 -53 -70 -40 -47
-129 -137 -136 -137 -4 0 -21 -11 -37 -25 -16 -14 -34 -25 -40 -25 -6 0 -21
-9 -34 -20 -13 -11 -27 -21 -32 -21 -4 -1 -11 -3 -15 -4 -5 -2 -18 -6 -30 -10
-13 -4 -23 -12 -23 -17 0 -5 -4 -6 -10 -3 -5 3 -10 1 -10 -6 0 -7 -2 -10 -6
-7 -3 3 -37 -3 -77 -13 -139 -38 -171 -42 -292 -43 -120 -1 -205 8 -261 28
-47 17 -126 56 -134 67 -3 3 -16 10 -30 14 -14 4 -32 15 -40 24 -12 13 -39 16
-160 16 -129 0 -150 -2 -191 -22 -100 -48 -212 -186 -295 -363 -19 -41 -43
-93 -54 -115 -58 -122 -171 -460 -236 -709 -13 -50 -26 -100 -29 -111 -4 -15
2 -28 22 -46 47 -41 61 -42 79 -6 9 18 20 34 23 37 3 3 11 12 16 21 6 10 24
37 40 60 17 24 37 58 45 74 8 17 23 39 33 49 9 11 17 25 17 31 0 6 14 24 30
40 17 16 30 35 30 44 0 8 2 12 5 9 3 -3 22 10 43 29 31 29 124 96 191 138 28
17 101 94 101 105 0 6 5 8 10 5 6 -3 10 -1 10 6 0 7 8 22 19 33 10 12 29 47
41 79 16 37 29 57 40 57 21 0 48 -29 53 -56 2 -10 7 -26 11 -36 4 -9 5 -29 2
-45 -7 -38 -24 -90 -26 -78 0 6 -7 -5 -15 -24 -8 -18 -12 -37 -9 -42 3 -5 -1
-9 -8 -9 -13 -1 -58 -34 -58 -43 0 -5 120 53 130 63 3 3 12 6 20 8 8 2 42 17
74 33 33 16 65 29 71 29 7 0 18 7 25 15 6 8 15 13 18 12 12 -3 72 25 72 34 0
4 9 6 20 4 11 -2 22 0 25 6 4 5 16 9 29 9 12 0 27 5 34 12 14 14 30 18 103 25
50 5 59 2 78 -18 11 -12 21 -29 21 -37 0 -17 -25 -43 -34 -35 -3 4 -6 -1 -6
-9 0 -10 -7 -15 -17 -14 -10 2 -20 0 -23 -5 -3 -4 -12 -9 -20 -11 -8 -2 -21
-9 -28 -16 -8 -7 -17 -10 -22 -7 -5 3 -10 0 -12 -5 -2 -6 -12 -13 -23 -14 -11
-2 -19 -8 -18 -14 1 -6 -5 -9 -15 -8 -9 2 -22 -2 -29 -8 -32 -28 -43 -36 -43
-31 0 3 -22 -11 -50 -30 -27 -19 -50 -32 -50 -29 0 4 -8 -3 -19 -14 -10 -12
-21 -19 -25 -15 -3 3 -6 1 -6 -5 0 -6 -9 -14 -20 -17 -11 -3 -20 -13 -20 -22
0 -14 3 -14 20 2 14 13 20 14 20 5 0 -7 3 -10 7 -6 11 11 31 -66 23 -89 -4
-12 0 -33 11 -53 26 -45 25 -102 -2 -131 l-21 -23 23 4 c13 2 27 7 31 12 11
16 5 -108 -6 -128 -27 -48 -94 -107 -131 -115 -5 -2 -15 -7 -20 -11 -6 -5 -22
-11 -37 -14 -14 -2 -35 -8 -45 -13 -10 -5 -25 -9 -33 -8 -8 1 -22 -2 -32 -7
-9 -4 -39 -10 -68 -13 -29 -3 -59 -9 -68 -13 -10 -5 -24 -8 -32 -7 -8 1 -31
-4 -52 -11 -20 -7 -40 -9 -44 -6 -5 4 -3 -1 5 -10 7 -9 34 -25 59 -34 26 -10
52 -21 57 -25 10 -7 207 -67 247 -74 10 -2 22 -6 26 -9 5 -3 31 -8 58 -12 27
-3 51 -7 54 -9 3 -2 30 -6 60 -10 30 -4 58 -9 61 -11 4 -2 35 -6 70 -9 35 -3
101 -9 146 -13 130 -12 407 -5 514 13 246 41 315 57 484 112 187 61 386 148
465 203 14 10 48 30 75 45 28 15 59 36 71 46 11 11 23 19 27 19 10 0 93 58
107 75 7 8 18 15 25 15 8 0 15 3 17 8 2 4 30 29 63 55 33 27 111 98 173 159
103 101 112 114 107 140 -4 15 -11 30 -16 33 -5 4 -9 12 -9 20 0 8 -29 92 -64
187 -159 430 -296 736 -361 808 -8 9 -15 21 -15 27 0 29 -135 107 -206 118
-68 11 -138 12 -178 3 -80 -18 -214 -93 -326 -182 -25 -19 -48 -32 -53 -27 -8
8 -11 67 -7 171 1 36 1 70 -1 75 -3 14 12 67 23 82 6 7 8 17 6 23 -2 6 -18
-20 -36 -58z m-92 -837 c10 2 17 -5 17 -17 1 -10 21 -42 45 -71 57 -69 56 -68
113 -104 28 -18 56 -37 63 -43 6 -6 12 -8 12 -4 0 3 7 0 16 -7 9 -7 23 -14 32
-15 8 -2 19 -9 23 -16 5 -7 9 -9 9 -5 0 5 7 1 16 -7 8 -9 24 -16 35 -16 10 0
19 -5 19 -12 0 -6 3 -8 7 -5 3 4 13 1 22 -7 9 -8 20 -14 24 -14 10 0 54 -40
128 -118 69 -72 149 -147 149 -140 0 7 41 -27 83 -66 l28 -28 -30 -55 c-74
-135 -158 -233 -234 -273 -35 -19 -42 -19 -78 -7 -21 8 -39 12 -39 10 0 -2
-15 1 -32 6 -18 6 -110 12 -204 15 -95 2 -180 7 -189 10 -10 4 -27 8 -39 9
-12 1 -41 10 -66 21 -25 10 -49 17 -53 16 -5 -1 -6 2 -2 8 3 5 0 10 -8 10 -15
0 -44 31 -65 68 -14 26 -13 104 1 95 6 -4 7 3 3 18 -16 53 -18 111 -6 134 9
17 10 28 3 37 -11 14 -10 89 1 106 4 6 15 9 26 7 11 -2 20 0 20 4 0 9 -100 56
-112 53 -5 -1 -8 3 -8 9 0 5 -4 7 -10 4 -5 -3 -10 -1 -10 6 0 7 -3 9 -7 6 -3
-4 -15 0 -25 10 -10 9 -18 13 -18 9 0 -3 -13 0 -29 8 -16 9 -31 12 -35 9 -3
-4 -6 -1 -6 6 0 7 -4 9 -10 6 -5 -3 -10 -2 -10 4 0 5 -8 8 -17 7 -10 -2 -21 1
-24 7 -4 5 -20 10 -37 12 -16 1 -35 5 -41 9 -6 4 -21 9 -33 11 -27 6 -67 34
-82 58 -8 13 -6 21 10 38 25 24 112 32 198 17 59 -11 54 -9 131 -32 33 -10 67
-19 75 -21 8 -2 58 -15 110 -29 52 -15 104 -29 115 -32 11 -3 26 -6 33 -6 6
-1 12 -6 12 -11 0 -6 3 -7 6 -4 4 3 15 2 25 -4 12 -6 19 -6 19 0 0 5 -9 13
-20 16 -37 12 -106 97 -117 145 -11 47 -9 97 5 113 8 9 12 17 7 17 -4 0 -2 7
5 15 8 9 17 12 24 6 6 -4 18 -7 26 -6z"/>
</g>
</svg>
